<svg width="24" height="24" viewBox="0 0 24 24" fill="none" xmlns="http://www.w3.org/2000/svg">
<g clip-path="url(#clip0_85_653)">
<path d="M13.0586 19.3867L12.1914 20.2539C11.8242 20.6211 11.2305 20.6211 10.8672 20.2539L3.27344 12.6641C2.90625 12.2969 2.90625 11.7031 3.27344 11.3398L10.8672 3.74609C11.2344 3.37891 11.8281 3.37891 12.1914 3.74609L13.0586 4.61328C13.4297 4.98438 13.4219 5.58984 13.043 5.95312L8.33594 10.4375H19.5625C20.082 10.4375 20.5 10.8555 20.5 11.375V12.625C20.5 13.1445 20.082 13.5625 19.5625 13.5625H8.33594L13.043 18.0469C13.4258 18.4102 13.4336 19.0156 13.0586 19.3867Z" fill="#212529"/>
</g>
<defs>
<clipPath id="clip0_85_653">
<rect width="17.5" height="20" fill="white" transform="translate(3 2)"/>
</clipPath>
</defs>
</svg>
