<svg width="24" height="24" viewBox="0 0 24 24" fill="none" xmlns="http://www.w3.org/2000/svg">
<g clip-path="url(#clip0_85_654)">
<path d="M10.4414 4.61328L11.3086 3.74609C11.6758 3.37891 12.2695 3.37891 12.6328 3.74609L20.2266 11.3359C20.5938 11.7031 20.5938 12.2969 20.2266 12.6602L12.6328 20.2539C12.2656 20.6211 11.6719 20.6211 11.3086 20.2539L10.4414 19.3867C10.0703 19.0156 10.0781 18.4102 10.457 18.0469L15.1641 13.5625H3.9375C3.41797 13.5625 3 13.1445 3 12.625V11.375C3 10.8555 3.41797 10.4375 3.9375 10.4375H15.1641L10.457 5.95312C10.0742 5.58984 10.0664 4.98438 10.4414 4.61328Z" fill="#212529"/>
</g>
<defs>
<clipPath id="clip0_85_654">
<rect width="17.5" height="20" fill="white" transform="translate(3 2)"/>
</clipPath>
</defs>
</svg>
