<svg width="32" height="32" viewBox="0 0 32 32" fill="none" xmlns="http://www.w3.org/2000/svg">
<g clip-path="url(#clip0_175_1764)">
<path d="M19.3082 15.9999L24.5202 10.7879C25.1597 10.1484 25.1597 9.11138 24.5202 8.47127L23.3618 7.31294C22.7222 6.67336 21.6853 6.67336 21.0452 7.31294L15.8332 12.5249L10.6212 7.31294C9.98161 6.67336 8.94463 6.67336 8.30452 7.31294L7.14619 8.47127C6.50661 9.11086 6.50661 10.1478 7.14619 10.7879L12.3582 15.9999L7.14619 21.2119C6.50661 21.8515 6.50661 22.8885 7.14619 23.5286L8.30452 24.6869C8.94411 25.3265 9.98161 25.3265 10.6212 24.6869L15.8332 19.4749L21.0452 24.6869C21.6847 25.3265 22.7222 25.3265 23.3618 24.6869L24.5202 23.5286C25.1597 22.889 25.1597 21.852 24.5202 21.2119L19.3082 15.9999Z" fill="#212529"/>
</g>
<defs>
<clipPath id="clip0_175_1764">
<rect width="18.3333" height="26.6667" fill="white" transform="translate(6.6665 2.66663)"/>
</clipPath>
</defs>
</svg>
