<svg width="25" height="25" viewBox="0 0 25 25" fill="none" xmlns="http://www.w3.org/2000/svg">
<g id="Frame">
<path id="Vector" d="M5.89147 3.64883H18.7905V6.20383H22.4595L21.6905 8.75883H21.0395V19.0938C21.3665 19.0938 21.6315 19.3538 21.6315 19.6748V20.3708H21.7495C22.0765 20.3708 22.3415 20.6308 22.3415 20.9518V21.6488H15.7135V20.9518C15.7135 20.6308 15.9785 20.3708 16.3055 20.3708H16.4235V19.6748C16.4235 19.3958 16.6245 19.1628 16.8915 19.1068L16.8785 13.4038C16.6695 11.1248 14.7175 9.33883 12.3415 9.33883C9.96447 9.33883 8.01247 11.1248 7.80347 13.4038L7.79047 19.1018C8.10647 19.1478 8.49447 19.3868 8.49447 19.6748V20.3708H8.61347C8.94047 20.3708 9.20447 20.6308 9.20447 20.9518V21.6488H2.57747V20.9518C2.57747 20.6308 2.84247 20.3708 3.16947 20.3708H3.28747V19.6748C3.28747 19.3538 3.55247 19.0938 3.87947 19.0938V8.75883H3.22847L2.45947 6.20383H5.89147V3.64883Z" fill="#212529"/>
</g>
</svg>
