<svg width="20" height="21" viewBox="0 0 20 21" fill="none" xmlns="http://www.w3.org/2000/svg">
<g id="fa-solid:info-circle" clip-path="url(#clip0_175_1691)">
<path id="Vector" d="M10 0.353363C4.65012 0.353363 0.3125 4.69254 0.3125 10.0409C0.3125 15.3923 4.65012 19.7284 10 19.7284C15.3499 19.7284 19.6875 15.3923 19.6875 10.0409C19.6875 4.69254 15.3499 0.353363 10 0.353363ZM10 4.65024C10.9061 4.65024 11.6406 5.38477 11.6406 6.29086C11.6406 7.19696 10.9061 7.93149 10 7.93149C9.09391 7.93149 8.35938 7.19696 8.35938 6.29086C8.35938 5.38477 9.09391 4.65024 10 4.65024ZM12.1875 14.5721C12.1875 14.831 11.9776 15.0409 11.7188 15.0409H8.28125C8.02238 15.0409 7.8125 14.831 7.8125 14.5721V13.6346C7.8125 13.3757 8.02238 13.1659 8.28125 13.1659H8.75V10.6659H8.28125C8.02238 10.6659 7.8125 10.456 7.8125 10.1971V9.25961C7.8125 9.00075 8.02238 8.79086 8.28125 8.79086H10.7812C11.0401 8.79086 11.25 9.00075 11.25 9.25961V13.1659H11.7188C11.9776 13.1659 12.1875 13.3757 12.1875 13.6346V14.5721Z" fill="#0786FB"/>
</g>
<defs>
<clipPath id="clip0_175_1691">
<rect width="20" height="20" fill="white" transform="translate(0 0.040863)"/>
</clipPath>
</defs>
</svg>
