<svg width="25" height="25" viewBox="0 0 25 25" fill="none" xmlns="http://www.w3.org/2000/svg">
<g id="mdi:instagram">
<path id="Vector" d="M8.10234 2.72038H16.5453C19.7616 2.72038 22.3749 5.33367 22.3749 8.55002V16.9929C22.3749 18.539 21.7607 20.0218 20.6674 21.1151C19.5742 22.2084 18.0914 22.8226 16.5453 22.8226H8.10234C4.88599 22.8226 2.27271 20.2093 2.27271 16.9929V8.55002C2.27271 7.0039 2.8869 5.52111 3.98017 4.42784C5.07343 3.33457 6.55622 2.72038 8.10234 2.72038ZM7.90132 4.7306C6.94166 4.7306 6.02131 5.11182 5.34273 5.7904C4.66415 6.46898 4.28292 7.38934 4.28292 8.34899V17.194C4.28292 19.1941 5.90115 20.8123 7.90132 20.8123H16.7463C17.7059 20.8123 18.6263 20.4311 19.3049 19.7525C19.9834 19.074 20.3647 18.1536 20.3647 17.194V8.34899C20.3647 6.34883 18.7464 4.7306 16.7463 4.7306H7.90132ZM17.6006 6.23826C17.9338 6.23826 18.2534 6.37063 18.489 6.60625C18.7246 6.84187 18.857 7.16144 18.857 7.49465C18.857 7.82787 18.7246 8.14743 18.489 8.38305C18.2534 8.61867 17.9338 8.75104 17.6006 8.75104C17.2674 8.75104 16.9478 8.61867 16.7122 8.38305C16.4766 8.14743 16.3442 7.82787 16.3442 7.49465C16.3442 7.16144 16.4766 6.84187 16.7122 6.60625C16.9478 6.37063 17.2674 6.23826 17.6006 6.23826ZM12.3238 7.74593C13.6567 7.74593 14.9349 8.2754 15.8774 9.21788C16.8199 10.1603 17.3493 11.4386 17.3493 12.7715C17.3493 14.1043 16.8199 15.3826 15.8774 16.3251C14.9349 17.2675 13.6567 17.797 12.3238 17.797C10.9909 17.797 9.71267 17.2675 8.7702 16.3251C7.82773 15.3826 7.29825 14.1043 7.29825 12.7715C7.29825 11.4386 7.82773 10.1603 8.7702 9.21788C9.71267 8.2754 10.9909 7.74593 12.3238 7.74593ZM12.3238 9.75615C11.5241 9.75615 10.7571 10.0738 10.1916 10.6393C9.62615 11.2048 9.30847 11.9718 9.30847 12.7715C9.30847 13.5712 9.62615 14.3381 10.1916 14.9036C10.7571 15.4691 11.5241 15.7868 12.3238 15.7868C13.1235 15.7868 13.8905 15.4691 14.456 14.9036C15.0214 14.3381 15.3391 13.5712 15.3391 12.7715C15.3391 11.9718 15.0214 11.2048 14.456 10.6393C13.8905 10.0738 13.1235 9.75615 12.3238 9.75615Z" fill="#212529"/>
</g>
</svg>
