<svg width="24" height="25" viewBox="0 0 24 25" fill="none" xmlns="http://www.w3.org/2000/svg">
<g opacity="0.7">
<g clip-path="url(#clip0_175_1716)">
<path d="M17.5 14.0409H16.5C16.3674 14.0409 16.2402 14.0935 16.1464 14.1873C16.0527 14.2811 16 14.4083 16 14.5409V18.0409H6V8.04086H10.5C10.6326 8.04086 10.7598 7.98818 10.8536 7.89442C10.9473 7.80065 11 7.67347 11 7.54086V6.54086C11 6.40825 10.9473 6.28108 10.8536 6.18731C10.7598 6.09354 10.6326 6.04086 10.5 6.04086H5.5C5.10218 6.04086 4.72064 6.1989 4.43934 6.4802C4.15804 6.76151 4 7.14304 4 7.54086V18.5409C4 18.9387 4.15804 19.3202 4.43934 19.6015C4.72064 19.8828 5.10218 20.0409 5.5 20.0409H16.5C16.8978 20.0409 17.2794 19.8828 17.5607 19.6015C17.842 19.3202 18 18.9387 18 18.5409V14.5409C18 14.4083 17.9473 14.2811 17.8536 14.1873C17.7598 14.0935 17.6326 14.0409 17.5 14.0409ZM19.25 4.04086H15.25C14.5822 4.04086 14.2484 4.85055 14.7188 5.32211L15.8353 6.43868L8.21875 14.0524C8.14883 14.1221 8.09335 14.2049 8.0555 14.2961C8.01764 14.3872 7.99816 14.485 7.99816 14.5837C7.99816 14.6824 8.01764 14.7801 8.0555 14.8713C8.09335 14.9625 8.14883 15.0452 8.21875 15.1149L8.92719 15.8221C8.99687 15.892 9.07966 15.9475 9.17082 15.9854C9.26199 16.0232 9.35973 16.0427 9.45844 16.0427C9.55715 16.0427 9.65489 16.0232 9.74605 15.9854C9.83721 15.9475 9.92001 15.892 9.98969 15.8221L17.6025 8.20711L18.7188 9.32211C19.1875 9.79086 20 9.46274 20 8.79086V4.79086C20 4.59195 19.921 4.40119 19.7803 4.26053C19.6397 4.11988 19.4489 4.04086 19.25 4.04086Z" fill="#212529"/>
</g>
</g>
<defs>
<clipPath id="clip0_175_1716">
<rect width="16" height="16" fill="white" transform="translate(4 4.04086)"/>
</clipPath>
</defs>
</svg>
