<svg width="26" height="25" viewBox="0 0 26 25" fill="none" xmlns="http://www.w3.org/2000/svg">
<g id="ic:baseline-tiktok">
<path id="Vector" d="M17.5946 6.55989C16.9076 5.77552 16.5289 4.76821 16.5292 3.72548H13.4234V16.1888C13.3995 16.8633 13.1147 17.5021 12.6291 17.9708C12.1436 18.4395 11.4951 18.7015 10.8202 18.7016C9.39293 18.7016 8.2069 17.5357 8.2069 16.0883C8.2069 14.3595 9.87538 13.0629 11.5941 13.5957V10.4195C8.12649 9.95716 5.09106 12.6508 5.09106 16.0883C5.09106 19.4353 7.86517 21.8174 10.8101 21.8174C13.9662 21.8174 16.5292 19.2544 16.5292 16.0883V9.76619C17.7886 10.6706 19.3007 11.1559 20.8512 11.1532V8.04745C20.8512 8.04745 18.9616 8.13791 17.5946 6.55989Z" fill="#212529"/>
</g>
</svg>
