<svg width="26" height="25" viewBox="0 0 26 25" fill="none" xmlns="http://www.w3.org/2000/svg">
<g id="mdi:youtube">
<path id="Vector" d="M11.0189 15.7868L16.2354 12.7715L11.0189 9.75615V15.7868ZM22.638 7.9168C22.7686 8.3892 22.8591 9.02242 22.9194 9.8265C22.9897 10.6306 23.0199 11.3241 23.0199 11.9272L23.0802 12.7715C23.0802 14.9727 22.9194 16.5909 22.638 17.6262C22.3867 18.5308 21.8037 19.1137 20.8991 19.365C20.4267 19.4957 19.5623 19.5861 18.2356 19.6464C16.9289 19.7168 15.7329 19.7469 14.6272 19.7469L13.0291 19.8072C8.81771 19.8072 6.19438 19.6464 5.15911 19.365C4.25452 19.1137 3.67155 18.5308 3.42028 17.6262C3.28961 17.1538 3.19915 16.5205 3.13884 15.7164C3.06849 14.9124 3.03833 14.2188 3.03833 13.6158L2.97803 12.7715C2.97803 10.5703 3.13884 8.95206 3.42028 7.9168C3.67155 7.0122 4.25452 6.42924 5.15911 6.17796C5.63152 6.04729 6.49591 5.95683 7.82265 5.89653C9.12929 5.82617 10.3254 5.79602 11.431 5.79602L13.0291 5.73571C17.2405 5.73571 19.8639 5.89653 20.8991 6.17796C21.8037 6.42924 22.3867 7.0122 22.638 7.9168Z" fill="#212529"/>
</g>
</svg>
